<svg xmlns="http://www.w3.org/2000/svg" xmlns:xlink="http://www.w3.org/1999/xlink" width="1080" zoomAndPan="magnify" viewBox="0 0 810 809.999993" height="1080" preserveAspectRatio="xMidYMid meet" version="1.0"><defs><clipPath id="255e2bae83"><path d="M 309.234375 533.507812 L 473.800781 533.507812 L 473.800781 677.242188 L 309.234375 677.242188 Z M 309.234375 533.507812 " clip-rule="nonzero"/></clipPath></defs><path fill="#ffffff" d="M 15.359375 401.085938 C 15.363281 394.679688 15.523438 388.277344 15.839844 381.878906 C 16.160156 375.480469 16.632812 369.09375 17.269531 362.71875 C 17.902344 356.347656 18.691406 349.992188 19.636719 343.65625 C 20.582031 337.320312 21.683594 331.011719 22.941406 324.730469 C 24.199219 318.449219 25.609375 312.203125 27.175781 305.992188 C 28.742188 299.777344 30.460938 293.609375 32.328125 287.484375 C 34.199219 281.355469 36.21875 275.277344 38.386719 269.25 C 40.554688 263.222656 42.871094 257.253906 45.335938 251.339844 C 47.796875 245.425781 50.40625 239.578125 53.15625 233.792969 C 55.910156 228.007812 58.800781 222.296875 61.835938 216.652344 C 64.867188 211.011719 68.039062 205.445312 71.347656 199.960938 C 74.65625 194.476562 78.09375 189.074219 81.667969 183.757812 C 85.242188 178.441406 88.945312 173.21875 92.777344 168.082031 C 96.609375 162.949219 100.566406 157.914062 104.644531 152.976562 C 108.726562 148.035156 112.921875 143.203125 117.242188 138.46875 C 121.558594 133.738281 125.992188 129.117188 130.539062 124.601562 C 135.085938 120.089844 139.738281 115.691406 144.5 111.40625 C 149.265625 107.125 154.128906 102.960938 159.097656 98.917969 C 164.066406 94.871094 169.132812 90.953125 174.292969 87.160156 C 179.453125 83.367188 184.707031 79.699219 190.046875 76.164062 C 195.390625 72.628906 200.816406 69.230469 206.324219 65.960938 C 211.835938 62.695312 217.421875 59.5625 223.085938 56.570312 C 228.75 53.578125 234.484375 50.726562 240.289062 48.019531 C 246.09375 45.308594 251.960938 42.742188 257.890625 40.324219 C 263.824219 37.902344 269.808594 35.628906 275.851562 33.503906 C 281.894531 31.378906 287.988281 29.40625 294.128906 27.582031 C 300.269531 25.753906 306.449219 24.082031 312.671875 22.5625 C 318.894531 21.042969 325.152344 19.675781 331.441406 18.464844 C 337.734375 17.253906 344.050781 16.199219 350.390625 15.296875 C 356.734375 14.398438 363.09375 13.652344 369.472656 13.066406 C 375.851562 12.480469 382.242188 12.050781 388.640625 11.78125 C 395.042969 11.507812 401.445312 11.394531 407.851562 11.4375 C 414.257812 11.480469 420.65625 11.683594 427.050781 12.042969 C 433.449219 12.402344 439.832031 12.917969 446.203125 13.59375 C 452.570312 14.265625 458.921875 15.097656 465.25 16.085938 C 471.582031 17.074219 477.882812 18.214844 484.15625 19.511719 C 490.425781 20.8125 496.664062 22.261719 502.867188 23.867188 C 509.066406 25.472656 515.226562 27.230469 521.339844 29.140625 C 527.457031 31.046875 533.519531 33.105469 539.53125 35.3125 C 545.546875 37.523438 551.5 39.875 557.398438 42.378906 C 563.296875 44.878906 569.128906 47.523438 574.894531 50.3125 C 580.660156 53.101562 586.355469 56.03125 591.980469 59.101562 C 597.601562 62.171875 603.144531 65.378906 608.609375 68.722656 C 614.074219 72.0625 619.453125 75.539062 624.746094 79.148438 C 630.039062 82.753906 635.238281 86.492188 640.347656 90.355469 C 645.457031 94.222656 650.46875 98.210938 655.378906 102.320312 C 660.292969 106.433594 665.097656 110.664062 669.804688 115.011719 C 674.507812 119.359375 679.101562 123.820312 683.585938 128.398438 C 688.066406 132.972656 692.4375 137.65625 696.6875 142.445312 C 700.941406 147.234375 705.074219 152.128906 709.085938 157.121094 C 713.097656 162.117188 716.984375 167.207031 720.746094 172.390625 C 724.503906 177.578125 728.136719 182.851562 731.636719 188.21875 C 735.136719 193.582031 738.503906 199.03125 741.734375 204.558594 C 744.96875 210.089844 748.0625 215.699219 751.019531 221.378906 C 753.972656 227.0625 756.789062 232.816406 759.460938 238.636719 C 762.132812 244.460938 764.660156 250.34375 767.039062 256.289062 C 769.421875 262.238281 771.65625 268.238281 773.742188 274.296875 C 775.828125 280.351562 777.765625 286.457031 779.550781 292.609375 C 781.335938 298.761719 782.96875 304.953125 784.449219 311.1875 C 785.925781 317.417969 787.253906 323.683594 788.425781 329.980469 C 789.59375 336.277344 790.609375 342.601562 791.46875 348.949219 C 792.328125 355.296875 793.03125 361.664062 793.578125 368.046875 C 794.121094 374.429688 794.511719 380.820312 794.742188 387.222656 C 794.972656 393.625 795.042969 400.027344 794.960938 406.433594 C 794.875 412.839844 794.632812 419.238281 794.230469 425.628906 C 793.828125 432.023438 793.273438 438.402344 792.554688 444.769531 C 791.839844 451.136719 790.96875 457.480469 789.941406 463.800781 C 788.914062 470.125 787.730469 476.417969 786.390625 482.683594 C 785.054688 488.949219 783.5625 495.175781 781.917969 501.367188 C 780.273438 507.558594 778.476562 513.703125 776.527344 519.804688 C 774.578125 525.910156 772.480469 531.960938 770.234375 537.957031 C 767.988281 543.957031 765.59375 549.898438 763.054688 555.777344 C 760.515625 561.660156 757.832031 567.472656 755.007812 573.222656 C 752.179688 578.972656 749.214844 584.648438 746.109375 590.25 C 743.003906 595.851562 739.761719 601.375 736.382812 606.816406 C 733.003906 612.261719 729.496094 617.617188 725.851562 622.886719 C 722.210938 628.15625 718.441406 633.332031 714.542969 638.417969 C 710.644531 643.5 706.625 648.484375 702.480469 653.371094 C 698.339844 658.257812 694.078125 663.035156 689.699219 667.710938 C 685.320312 672.386719 680.828125 676.953125 676.226562 681.40625 C 671.621094 685.859375 666.910156 690.199219 662.09375 694.421875 C 657.273438 698.644531 652.355469 702.742188 647.335938 706.722656 C 642.316406 710.703125 637.203125 714.554688 631.992188 718.28125 C 626.78125 722.011719 621.484375 725.605469 616.097656 729.074219 C 610.710938 732.539062 605.238281 735.871094 599.6875 739.066406 C 594.136719 742.261719 588.511719 745.320312 582.808594 748.238281 C 577.105469 751.160156 571.335938 753.933594 565.496094 756.570312 C 559.65625 759.203125 553.757812 761.691406 547.796875 764.035156 C 541.832031 766.378906 535.816406 768.574219 529.75 770.621094 C 523.679688 772.671875 517.5625 774.566406 511.398438 776.3125 C 505.234375 778.058594 499.03125 779.648438 492.789062 781.089844 C 486.546875 782.53125 480.273438 783.816406 473.96875 784.945312 C 467.664062 786.074219 461.335938 787.050781 454.980469 787.867188 C 448.628906 788.6875 442.257812 789.347656 435.871094 789.851562 C 429.484375 790.355469 423.089844 790.703125 416.6875 790.894531 C 410.285156 791.082031 403.882812 791.113281 397.476562 790.988281 C 391.179688 790.855469 384.886719 790.574219 378.601562 790.136719 C 372.320312 789.703125 366.050781 789.117188 359.792969 788.378906 C 353.535156 787.636719 347.300781 786.75 341.089844 785.707031 C 334.875 784.667969 328.691406 783.476562 322.539062 782.136719 C 316.382812 780.796875 310.261719 779.308594 304.179688 777.671875 C 298.097656 776.035156 292.058594 774.25 286.058594 772.320312 C 280.0625 770.394531 274.117188 768.320312 268.21875 766.101562 C 262.324219 763.886719 256.484375 761.527344 250.703125 759.027344 C 244.921875 756.527344 239.203125 753.886719 233.546875 751.109375 C 227.894531 748.335938 222.308594 745.421875 216.796875 742.375 C 211.285156 739.328125 205.847656 736.148438 200.488281 732.835938 C 195.128906 729.527344 189.851562 726.089844 184.660156 722.523438 C 179.46875 718.957031 174.363281 715.265625 169.347656 711.453125 C 164.335938 707.640625 159.417969 703.707031 154.59375 699.65625 C 149.769531 695.601562 145.046875 691.4375 140.425781 687.15625 C 135.804688 682.875 131.289062 678.488281 126.878906 673.988281 C 122.46875 669.488281 118.171875 664.886719 113.984375 660.179688 C 109.796875 655.472656 105.730469 650.664062 101.773438 645.761719 C 97.820312 640.855469 93.988281 635.859375 90.277344 630.769531 C 86.566406 625.679688 82.980469 620.503906 79.519531 615.238281 C 76.058594 609.976562 72.726562 604.632812 69.523438 599.207031 C 66.324219 593.78125 63.253906 588.28125 60.320312 582.707031 C 57.382812 577.132812 54.585938 571.492188 51.921875 565.785156 C 49.257812 560.074219 46.738281 554.304688 44.355469 548.472656 C 41.972656 542.640625 39.730469 536.757812 37.632812 530.816406 C 35.535156 524.875 33.582031 518.890625 31.773438 512.855469 C 29.964844 506.820312 28.304688 500.746094 26.792969 494.632812 C 25.277344 488.515625 23.914062 482.367188 22.695312 476.1875 C 21.480469 470.007812 20.414062 463.800781 19.5 457.566406 C 18.585938 451.335938 17.820312 445.082031 17.207031 438.8125 C 16.597656 432.542969 16.136719 426.261719 15.828125 419.972656 C 15.519531 413.679688 15.363281 407.382812 15.359375 401.085938 Z M 298.277344 408.953125 L 298.066406 408.953125 C 304.320312 416.101562 304.363281 417.460938 299.300781 424.992188 C 295.046875 431.414062 290.792969 437.753906 286.539062 444.558594 C 286.097656 445.460938 285.898438 446.410156 285.933594 447.414062 C 285.972656 448.417969 286.246094 449.351562 286.75 450.214844 C 297.34375 459.53125 301.9375 472.464844 308.019531 484.457031 C 311.890625 491.902344 316.527344 498.921875 320.78125 506.152344 L 322.398438 505.21875 L 319.164062 498.410156 L 320.738281 496.835938 L 341.242188 509.597656 C 341.753906 504.367188 342.179688 499.644531 342.6875 494.964844 C 342.921875 490.792969 343.546875 486.683594 344.558594 482.628906 C 345.113281 480.972656 347.964844 479.652344 350.003906 479.054688 C 350.683594 479.054688 352.429688 481.609375 353.152344 483.308594 C 354.554688 486.332031 355.578125 489.519531 356.726562 492.667969 C 362.597656 484.160156 356.128906 478.035156 354.472656 473.230469 C 362.425781 462.125 369.613281 451.960938 376.761719 441.964844 C 375.792969 449.0625 374.09375 455.984375 371.65625 462.722656 C 369.316406 469.570312 366.636719 476.375 364.085938 483.183594 L 366.210938 484.585938 C 366.585938 483.65625 367.011719 482.746094 367.488281 481.863281 C 369.699219 477.609375 372.210938 473.996094 374.125 469.824219 C 386.554688 441.964844 396 413.125 402.453125 383.304688 C 405.730469 368.457031 411.601562 358.375 426.191406 352.464844 C 434.359375 349.1875 440.949219 341.957031 448.011719 336.214844 C 449.289062 335.195312 450.605469 332.214844 450.054688 331.152344 C 445.164062 322.089844 447.117188 312.777344 449.074219 303.671875 C 452.136719 289.296875 450.394531 276.320312 439.761719 265.390625 C 439.761719 265.390625 439.761719 264.75 440.484375 262.707031 L 454.136719 276.660156 C 456.988281 273.128906 456.691406 271.003906 453.414062 268.707031 C 448.46875 265.34375 443.800781 261.628906 439.417969 257.5625 C 433.421875 251.988281 433.847656 249.648438 440.738281 245.394531 C 429.890625 239.949219 426.191406 226.210938 413.8125 222.425781 C 407.175781 230.039062 408.664062 243.695312 395.433594 245.523438 C 396.421875 242.472656 397.839844 239.636719 399.6875 237.015625 C 401.648438 234.5 403.40625 231.847656 404.964844 229.0625 C 405.644531 227.445312 404.964844 225.148438 404.707031 223.191406 C 402.921875 223.871094 400.453125 224.042969 399.519531 225.316406 C 378.25 249.820312 357.789062 274.660156 336.5625 298.992188 C 312.953125 326.046875 288.410156 352.335938 269.4375 383.046875 C 265.949219 388.707031 262.886719 394.535156 259.3125 400.871094 L 285.132812 386.960938 C 284.941406 387.765625 284.8125 388.578125 284.742188 389.402344 C 284.671875 390.226562 284.667969 391.050781 284.722656 391.875 C 284.777344 392.699219 284.894531 393.515625 285.074219 394.320312 C 285.253906 395.128906 285.492188 395.917969 285.789062 396.6875 C 286.089844 397.457031 286.441406 398.203125 286.855469 398.917969 C 287.265625 399.636719 287.726562 400.316406 288.242188 400.964844 C 288.757812 401.609375 289.316406 402.214844 289.921875 402.777344 C 290.527344 403.339844 291.171875 403.851562 291.855469 404.316406 C 294.195312 405.722656 296.109375 407.378906 298.277344 408.953125 Z M 49.390625 472.335938 L 175.386719 307.542969 C 184.449219 314.5625 192.953125 321.453125 201.804688 327.917969 C 211.417969 334.980469 221.03125 342.167969 231.238281 348.335938 C 232.296875 349.015625 233.394531 349.621094 234.53125 350.152344 C 235.667969 350.6875 236.835938 351.140625 238.03125 351.523438 C 239.230469 351.902344 240.445312 352.203125 241.683594 352.425781 C 242.917969 352.644531 244.164062 352.785156 245.417969 352.84375 C 246.671875 352.898438 247.925781 352.875 249.179688 352.769531 C 250.429688 352.660156 251.667969 352.472656 252.894531 352.207031 C 254.121094 351.9375 255.324219 351.589844 256.507812 351.160156 C 257.6875 350.734375 258.835938 350.234375 259.953125 349.65625 C 265.3125 347.097656 270.441406 344.140625 275.34375 340.789062 C 280.246094 337.441406 284.863281 333.734375 289.191406 329.667969 C 293.523438 325.605469 297.515625 321.234375 301.171875 316.554688 C 304.828125 311.875 308.101562 306.945312 310.996094 301.757812 C 316.101562 291.539062 322.679688 282.378906 330.734375 274.277344 C 344.175781 261.519531 357.535156 248.757812 370.421875 235.230469 C 376.511719 229.121094 381.960938 222.488281 386.777344 215.332031 C 391.589844 208.179688 395.683594 200.632812 399.050781 192.691406 C 400.070312 190.265625 401.007812 187.757812 402.582031 183.800781 C 414.320312 195.285156 425.765625 205.324219 435.761719 216.597656 C 454.09375 237.144531 471.492188 258.539062 489.402344 279.425781 C 507.308594 300.3125 527.34375 320.476562 551.378906 335.363281 C 552.804688 336.152344 554.316406 336.703125 555.914062 337.023438 C 557.511719 337.34375 559.117188 337.414062 560.738281 337.234375 C 563.265625 336.859375 565.738281 336.265625 568.15625 335.445312 C 570.574219 334.625 572.902344 333.597656 575.136719 332.359375 C 577.367188 331.121094 579.472656 329.691406 581.449219 328.074219 C 583.425781 326.457031 585.242188 324.675781 586.898438 322.730469 C 592.894531 316.347656 598.46875 309.542969 604.59375 303.246094 C 606.191406 301.453125 607.929688 299.800781 609.800781 298.292969 C 611.675781 296.785156 613.65625 295.441406 615.753906 294.261719 C 617.847656 293.082031 620.027344 292.082031 622.285156 291.261719 C 624.546875 290.445312 626.859375 289.816406 629.222656 289.378906 C 646.503906 321.296875 666.425781 351.472656 688.988281 379.902344 C 711.464844 408.367188 736.550781 434.316406 764.238281 457.746094 C 789.039062 306.734375 713.746094 154.832031 578.519531 81.113281 C 574.398438 78.871094 570.234375 76.710938 566.027344 74.628906 C 561.820312 72.546875 557.578125 70.546875 553.292969 68.628906 C 549.011719 66.714844 544.691406 64.882812 540.339844 63.132812 C 535.984375 61.382812 531.597656 59.71875 527.179688 58.140625 C 522.757812 56.5625 518.3125 55.070312 513.835938 53.664062 C 509.359375 52.257812 504.855469 50.941406 500.328125 49.710938 C 495.800781 48.476562 491.25 47.335938 486.675781 46.28125 C 482.105469 45.226562 477.511719 44.261719 472.902344 43.386719 C 468.292969 42.507812 463.667969 41.722656 459.027344 41.027344 C 454.386719 40.328125 449.734375 39.722656 445.070312 39.207031 C 440.40625 38.691406 435.734375 38.265625 431.054688 37.933594 C 426.375 37.597656 421.6875 37.355469 417 37.203125 C 412.308594 37.050781 407.617188 36.988281 402.925781 37.015625 C 398.230469 37.046875 393.542969 37.167969 388.855469 37.378906 C 384.167969 37.589844 379.484375 37.894531 374.808594 38.285156 C 370.132812 38.679688 365.46875 39.164062 360.808594 39.738281 C 356.152344 40.3125 351.507812 40.980469 346.878906 41.734375 C 342.246094 42.488281 337.632812 43.332031 333.03125 44.265625 C 328.433594 45.203125 323.855469 46.226562 319.296875 47.335938 C 314.738281 48.449219 310.203125 49.648438 305.691406 50.9375 C 301.179688 52.226562 296.691406 53.601562 292.234375 55.0625 C 287.773438 56.523438 283.347656 58.074219 278.949219 59.707031 C 274.546875 61.339844 270.183594 63.058594 265.851562 64.863281 C 261.519531 66.667969 257.222656 68.554688 252.964844 70.527344 C 248.707031 72.496094 244.488281 74.546875 240.308594 76.683594 C 236.128906 78.816406 231.996094 81.03125 227.902344 83.328125 C 223.808594 85.621094 219.761719 87.996094 215.761719 90.445312 C 211.761719 92.898438 207.808594 95.425781 203.90625 98.035156 C 200.003906 100.640625 196.152344 103.320312 192.355469 106.074219 C 188.554688 108.828125 184.8125 111.65625 181.121094 114.558594 C 177.433594 117.457031 173.804688 120.429688 170.230469 123.46875 C 166.65625 126.511719 163.144531 129.621094 159.691406 132.796875 C 46.496094 235.953125 27.609375 378.667969 49.390625 472.335938 Z M 175.726562 325.15625 C 171.898438 332.769531 169.347656 338.597656 166.15625 344.082031 C 161.265625 352.335938 155.734375 360.25 151.011719 368.457031 C 150.101562 369.867188 149.425781 371.382812 148.980469 373 C 148.539062 374.621094 148.351562 376.265625 148.417969 377.945312 C 148.417969 379.730469 152.671875 381.050781 155.605469 383.132812 C 153.175781 385.605469 150.511719 387.789062 147.609375 389.683594 C 144.414062 390.925781 141.125 391.820312 137.742188 392.363281 C 139.570312 396.617188 141.996094 399.597656 141.996094 402.402344 C 141.652344 408.273438 144.078125 410.910156 149.183594 411.890625 C 147.949219 422.054688 137.742188 419.503906 134.253906 422.3125 C 134.671875 427.734375 134.601562 433.152344 134.039062 438.5625 C 132.933594 443.960938 130 448.980469 128.59375 454.34375 C 127.792969 456.480469 127.285156 458.683594 127.070312 460.957031 C 126.851562 463.230469 126.9375 465.492188 127.320312 467.742188 C 128.207031 469.867188 129.402344 471.804688 130.910156 473.546875 C 132.414062 475.292969 134.152344 476.761719 136.125 477.949219 C 137.359375 478.757812 142.039062 475.910156 144.078125 473.695312 C 152.332031 465.1875 159.945312 455.789062 168.15625 447.066406 C 176.363281 438.347656 178.40625 439.453125 182.234375 450.214844 C 187.253906 436.347656 197.632812 427.628906 207.757812 418.609375 C 211.316406 415.421875 214.707031 412.058594 217.925781 408.527344 C 229.453125 395.765625 231.835938 380.410156 228.984375 363.3125 C 215.710938 363.992188 206.523438 357.527344 199.546875 347.019531 C 197.183594 342.867188 194.347656 339.066406 191.039062 335.617188 C 186.140625 331.808594 181.023438 328.320312 175.683594 325.15625 Z M 615.824219 309.203125 C 594.554688 317.710938 583.070312 337.363281 589.28125 359.3125 C 592.691406 370.386719 597.78125 380.621094 604.550781 390.023438 C 611.890625 400.175781 620.121094 409.542969 629.242188 418.125 C 638.363281 426.710938 648.210938 434.359375 658.789062 441.070312 C 657.0625 431.703125 654.652344 422.515625 651.554688 413.503906 C 643.304688 390.875 634.117188 368.585938 626.035156 345.871094 C 621.820312 333.703125 619.398438 321.199219 615.824219 309.203125 Z M 646.960938 462.339844 C 630.542969 435.710938 569.671875 377.261719 551.933594 369.5625 C 569.96875 386.578125 579.878906 408.144531 591.621094 429.117188 L 595.535156 424.863281 C 602.46875 429.5 604.847656 441.582031 616.800781 437.027344 C 623.054688 450.089844 635.859375 455.191406 646.960938 462.339844 Z M 646.960938 462.339844 " fill-opacity="1" fill-rule="nonzero"/><path fill="#ffffff" d="M 298.277344 408.953125 C 298.882812 406.054688 299.988281 403.359375 301.597656 400.871094 C 304.4375 398.726562 307.386719 396.738281 310.445312 394.917969 C 314.953125 391.128906 318.953125 386.878906 323.632812 382.664062 C 325.671875 389.640625 321.035156 395.425781 317.082031 401.339844 C 312.570312 408.019531 306.828125 412.484375 298.066406 408.742188 Z M 298.277344 408.953125 " fill-opacity="1" fill-rule="nonzero"/><g clip-path="url(#255e2bae83)"><path fill="#ffffff" d="M 309.234375 533.507812 L 473.742188 533.507812 L 473.742188 677.242188 L 309.234375 677.242188 Z M 309.234375 533.507812 " fill-opacity="1" fill-rule="nonzero"/></g></svg>